Prometheus.2012.BDRip.DivX.AC3-Atilla82



Prometheus (2012)

Prequel to Alien


 
http://www.imdb.com/title/tt1446714/


A team of explorers discover a clue to the origins of mankind on Earth, 
leading them on a journey to the darkest corners of the universe. 
There, they must fight a terrifying battle to save the future of the human race.




subtitles: English, Spanish, Brazilian, Dutch, Croatian (.srt)




General
Complete name : Prometheus.2012.BDRip.DivX.AC3-Atilla82.avi
Format : AVI
Format/Info : Audio Video Interleave
File size : 1.42 GiB
Duration : 2h 3mn
Overall bit rate : 1 646 Kbps

Video
ID : 0
Format : MPEG-4 Visual
Format settings, BVOP : 1
Format settings, QPel : No
Format settings, GMC : No warppoints
Format settings, Matrix : Default (H.263)
Codec ID : DX50
Codec ID/Hint : DivX 5
Duration : 2h 3mn
Bit rate : 1 250 Kbps
Width : 720 pixels
Height : 300 pixels
Display aspect ratio : 2.40:1
Frame rate : 23.976 fps
Color space : YUV
Chroma subsampling : 4:2:0
Bit depth : 8 bits
Scan type : Progressive
Compression mode : Lossy
Bits/(Pixel*Frame) : 0.241
Stream size : 1.08 GiB (76%)
Writing library : DivX 3330

Audio
ID : 1
Format : AC-3
Format/Info : Audio Coding 3
Mode extension : CM (complete main)
Format settings, Endianness : Big
Codec ID : 2000
Duration : 2h 3mn
Source duration : 2h 3mn
Bit rate mode : Constant
Bit rate : 384 Kbps
Channel(s) : 6 channels
Channel positions : Front: L C R, Side: L R, LFE
Sampling rate : 48.0 KHz
Bit depth : 16 bits
Compression mode : Lossy
Stream size : 340 MiB (23%)
Alignment : Aligned on interleaves
Interleave, duration : 42 ms (1.00 video frame)



SCREENSHOTS 
http://www.pohrani.com/f/0/eW/2oiepCXr/screenshots.jpg



